<?xml version="1.0" encoding="utf-8"?>
<!-- Generator: Adobe Illustrator 16.0.4, SVG Export Plug-In . SVG Version: 6.00 Build 0)  -->
<!DOCTYPE svg PUBLIC "-//W3C//DTD SVG 1.1//EN" "http://www.w3.org/Graphics/SVG/1.1/DTD/svg11.dtd">
<svg version="1.1" id="Layer_1" xmlns="http://www.w3.org/2000/svg" xmlns:xlink="http://www.w3.org/1999/xlink" x="0px" y="0px"
	 width="64px" height="64px" viewBox="0 0 64 64" enable-background="new 0 0 64 64" xml:space="preserve">
<g>
	<path fill="none" d="M61.83008,38.59375c-0.01953-0.06445-0.03516-0.13086-0.06348-0.19336l-8.39355-18.8877
		c-0.0791-0.17578-0.18945-0.33691-0.32617-0.47266l-3.9502-3.95117L45.38379,4.92383
		c-0.07812-0.21484-0.20312-0.41113-0.36523-0.57324c-1.23926-1.23828-3.24121-1.94824-5.49219-1.94824
		c-2.25195,0-4.25391,0.70996-5.49121,1.94922c-0.29492,0.29492-0.46094,0.69531-0.46094,1.1123v10.49219
		c0,0.86914,0.7041,1.57324,1.57324,1.57324s1.57422-0.7041,1.57422-1.57324V6.21973
		c0.68848-0.4209,1.70605-0.66992,2.80469-0.66992c1.23047,0,2.35742,0.3125,3.03809,0.82812l3.69434,10.11816
		c0.0791,0.21484,0.2041,0.41016,0.36621,0.57227l3.99023,3.99023l5.28125,11.88379
		c-2.12402-1.12891-4.54199-1.77344-7.10938-1.77344c-4.91602,0-9.2832,2.35645-12.06543,5.98535V24.42676
		c2.66797,0.74609,4.19629,2.04199,4.19629,3.07031c0,0.86914,0.70508,1.57324,1.57422,1.57324
		c0.86816,0,1.57324-0.7041,1.57324-1.57324c0-3.8877-5.1875-6.82031-12.06543-6.82031
		c-6.87842,0-12.06543,2.93262-12.06543,6.82031c0,0.86914,0.7041,1.57324,1.57373,1.57324
		c0.86914,0,1.57373-0.7041,1.57373-1.57324c0-1.02832,1.5293-2.32422,4.19678-3.06934V37.1543
		c-2.78271-3.62891-7.14941-5.98535-12.06592-5.98535c-2.56738,0-4.98535,0.64453-7.10938,1.77344l5.28174-11.88379l3.98975-3.99023
		c0.15039-0.15039,0.26953-0.33008,0.34814-0.52832l4.06152-10.15332c1.33887-1.06738,4.00684-1.12695,5.49414-0.17676v9.74609
		c0,0.86914,0.7041,1.57324,1.57373,1.57324c0.86914,0,1.57373-0.7041,1.57373-1.57324V5.46387
		c0-0.41699-0.16602-0.81836-0.46094-1.11328c-2.58008-2.57812-8.03809-2.5791-10.61914,0.00098
		c-0.15039,0.15039-0.26953,0.33008-0.34814,0.52832L14.9209,15.07129l-3.96826,3.96875
		c-0.13672,0.13574-0.24658,0.29688-0.3252,0.47266l-8.39355,18.8877c-0.02783,0.0625-0.04395,0.12695-0.06299,0.19141
		C0.80225,40.875,0,43.53516,0,46.38281c0,8.38867,6.82471,15.21484,15.21289,15.21484
		c8.38867,0,15.21338-6.82617,15.21338-15.21484V23.89062c0.50488-0.03906,1.02539-0.06641,1.57373-0.06641
		c0.54785,0,1.06836,0.02734,1.57422,0.06641v22.49219c0,8.38867,6.82422,15.21484,15.21289,15.21484
		C57.1748,61.59766,64,54.77148,64,46.38281C64,43.53516,63.19922,40.875,61.83008,38.59375z M15.21289,58.44922
		c-6.65283,0-12.06543-5.41211-12.06543-12.06641c0-6.65234,5.4126-12.06445,12.06543-12.06445
		c6.65332,0,12.06592,5.41211,12.06592,12.06445C27.27881,53.03711,21.86621,58.44922,15.21289,58.44922z M48.78711,58.44922
		c-6.65332,0-12.06543-5.41211-12.06543-12.06641c0-6.65234,5.41211-12.06445,12.06543-12.06445
		c6.65234,0,12.06543,5.41211,12.06543,12.06445C60.85254,53.03711,55.43945,58.44922,48.78711,58.44922z"/>
	<path fill="none" d="M14.80225,37.28516c-5.24414,0-9.51074,4.26562-9.51074,9.50977c0,0.86914,0.70459,1.57422,1.57373,1.57422
		c0.86963,0,1.57373-0.70508,1.57373-1.57422c0-3.50781,2.85449-6.36328,6.36328-6.36328c0.86914,0,1.57373-0.70508,1.57373-1.57422
		S15.67139,37.28516,14.80225,37.28516z"/>
	<path fill="none" d="M49.19727,37.28516c-5.24414,0-9.51074,4.26562-9.51074,9.50977c0,0.86914,0.70508,1.57422,1.57324,1.57422
		c0.86914,0,1.57422-0.70508,1.57422-1.57422c0-3.50781,2.85449-6.36328,6.36328-6.36328c0.86914,0,1.57422-0.70508,1.57422-1.57422
		S50.06641,37.28516,49.19727,37.28516z"/>
</g>
</svg>
