<?xml version="1.0" encoding="utf-8"?>
<!-- Generator: Adobe Illustrator 16.0.4, SVG Export Plug-In . SVG Version: 6.00 Build 0)  -->
<!DOCTYPE svg PUBLIC "-//W3C//DTD SVG 1.1//EN" "http://www.w3.org/Graphics/SVG/1.1/DTD/svg11.dtd">
<svg version="1.1" id="Layer_1" xmlns="http://www.w3.org/2000/svg" xmlns:xlink="http://www.w3.org/1999/xlink" x="0px" y="0px"
	 width="64px" height="64px" viewBox="0 0 64 64" enable-background="new 0 0 64 64" xml:space="preserve">
<g>
	<path fill="none" d="M30.63086,50.77051c11.08008,0,20.09473-9.01465,20.09473-20.09424
		c0-7.93457-4.61816-15.41846-11.49121-18.62256c-0.44922-0.20996-0.97363-0.19434-1.41113,0.04053
		c-0.4375,0.23535-0.73828,0.66357-0.81055,1.15576c-0.30469,2.06445-1.24414,4.27588-2.42969,5.8501
		c-1.47461-1.87939-2.37891-4.45605-2.37891-6.94336c0-3.7334,2.94629-7.47314,5.85742-9.2373
		c0.64551-0.39111,0.92188-1.18604,0.66016-1.89355c-0.2627-0.70654-0.99121-1.12549-1.73535-1.00439
		C22.15479,2.50293,10.53711,15.96777,10.53711,30.67627C10.53711,41.75586,19.55078,50.77051,30.63086,50.77051z M31.54297,4.83887
		c-1.48145,2.11328-2.48584,4.63428-2.48584,7.31787c0,3.95654,1.72217,7.95459,4.49365,10.43311
		c0.59961,0.53418,1.50586,0.53516,2.10059-0.00244c1.71875-1.54248,3.19824-4.08154,3.99121-6.72754
		c4.81348,3.06348,7.93555,8.78027,7.93555,14.81641c0,9.34424-7.60254,16.94678-16.94727,16.94678
		c-9.34424,0-16.94629-7.60254-16.94629-16.94678C13.68457,19.50586,21.16113,9.13086,31.54297,4.83887z"/>
	<path fill="none" d="M63.96191,48.44141c-0.19043-0.84863-1.03223-1.37988-1.87988-1.19141L1.22998,60.88867
		c-0.84766,0.19043-1.38184,1.03223-1.19141,1.88086c0.16406,0.73242,0.81396,1.22949,1.53418,1.22949
		c0.11426,0,0.22998-0.0127,0.3457-0.03809l60.85205-13.63965C63.61816,50.13086,64.15137,49.29004,63.96191,48.44141z"/>
	<path fill="none" d="M1.23291,50.32129l18.88525,4.19727c0.11475,0.02539,0.22949,0.03711,0.34277,0.03711
		c0.72119,0,1.37158-0.49902,1.53467-1.23242c0.18848-0.84766-0.34619-1.68848-1.19531-1.87695L1.91553,47.25
		c-0.84424-0.1875-1.68848,0.3457-1.87744,1.19434S0.38428,50.13281,1.23291,50.32129z"/>
	<path fill="none" d="M62.7666,60.88867l-18.88477-4.19629c-0.85156-0.19043-1.68945,0.34668-1.87695,1.19434
		c-0.18848,0.84863,0.34668,1.68848,1.19434,1.87695l18.88574,4.19727c0.11426,0.02539,0.22949,0.03809,0.3418,0.03809
		c0.72266,0,1.37207-0.49902,1.53516-1.2334C64.15039,61.91797,63.61523,61.07715,62.7666,60.88867z"/>
</g>
</svg>
