<?xml version="1.0" encoding="utf-8"?>
<!-- Generator: Adobe Illustrator 16.0.4, SVG Export Plug-In . SVG Version: 6.00 Build 0)  -->
<!DOCTYPE svg PUBLIC "-//W3C//DTD SVG 1.1//EN" "http://www.w3.org/Graphics/SVG/1.1/DTD/svg11.dtd">
<svg version="1.1" id="Layer_1" xmlns="http://www.w3.org/2000/svg" xmlns:xlink="http://www.w3.org/1999/xlink" x="0px" y="0px"
	 width="64px" height="64px" viewBox="0 0 64 64" enable-background="new 0 0 64 64" xml:space="preserve">
<g>
	<path fill="none" d="M12.12744,52.09375c-0.53955,0-3.375-0.06934-6.19873-1.45605C3.22363,49.30859,0,46.48828,0,40.59961
		c0-6.34082,5.14941-11.49805,11.47949-11.49805c0.21826,0,0.43701,0.00586,0.65576,0.01953
		C13.53711,19.3418,21.95801,11.90625,32,11.90625c7.37207,0,14.20801,4.13086,17.68945,10.60449
		C57.62305,22.75684,64,29.29297,64,37.29199c0,10.33203-8.68457,14.19141-13.27637,14.78906l-0.20312,0.0127H12.12744z
		 M11.47949,32.24902c-4.59424,0-8.33203,3.74609-8.33203,8.35059c0,8.11328,8.06104,8.34668,8.97998,8.34668v1.57422
		l0.01025-1.57422h38.26953c1.08984-0.16992,10.44531-1.91406,10.44531-11.6543c0-6.56641-5.42676-11.90332-12.07227-11.63281
		l-1.03418,0.03809l-0.44531-0.93652C44.50488,18.86426,38.49902,15.05371,32,15.05371
		c-8.94482,0-16.36426,6.99707-16.8916,15.92871l-0.10742,1.82031l-1.78516-0.37305
		C12.64111,32.31055,12.05664,32.24902,11.47949,32.24902z"/>
</g>
</svg>
