<?xml version="1.0" encoding="utf-8"?>
<!-- Generator: Adobe Illustrator 16.0.4, SVG Export Plug-In . SVG Version: 6.00 Build 0)  -->
<!DOCTYPE svg PUBLIC "-//W3C//DTD SVG 1.1//EN" "http://www.w3.org/Graphics/SVG/1.1/DTD/svg11.dtd">
<svg version="1.1" id="Layer_1" xmlns="http://www.w3.org/2000/svg" xmlns:xlink="http://www.w3.org/1999/xlink" x="0px" y="0px"
	 width="64px" height="64px" viewBox="0 0 64 64" enable-background="new 0 0 64 64" xml:space="preserve">
<path fill-rule="evenodd" clip-rule="evenodd" fill="none" d="M32.00781,64.01172c-17.64453,0-31.99951-14.35547-31.99951-32
	s14.35498-32,31.99951-32s32,14.35547,32,32S49.65234,64.01172,32.00781,64.01172z M32.00781,2.29785
	c-16.38477,0-29.71387,13.3291-29.71387,29.71387s13.3291,29.71387,29.71387,29.71387s29.71387-13.3291,29.71387-29.71387
	S48.39258,2.29785,32.00781,2.29785z M32.00781,59.60352c-15.21436,0-27.59131-12.37793-27.59131-27.5918
	c0-15.21436,12.37695-27.59082,27.59131-27.59082c15.21387,0,27.5918,12.37646,27.5918,27.59082
	C59.59961,47.22559,47.22168,59.60352,32.00781,59.60352z M32.00781,6.70654c-13.95312,0-25.30566,11.35156-25.30566,25.30518
	c0,13.95312,11.35254,25.30566,25.30566,25.30566s25.30566-11.35254,25.30566-25.30566
	C57.31348,18.05811,45.96094,6.70654,32.00781,6.70654z M36.45508,41.59766c-0.91406,0.91406-2.06055,1.50293-3.30469,1.72949
	v4.1123c0,0.63184-0.51221,1.14453-1.14258,1.14453c-0.63184,0-1.14307-0.5127-1.14307-1.14453v-4.1123
	c-1.24268-0.22656-2.38867-0.81738-3.30176-1.72949c-1.18652-1.1875-1.84033-2.76562-1.83936-4.44531
	c0.00146-0.62891,0.5127-1.1416,1.14307-1.1416c0.00098,0,0.00098,0,0.00098,0c0.63184,0,1.14307,0.5127,1.14209,1.14551
	c-0.00146,1.06543,0.41455,2.07129,1.16895,2.82422c0.47656,0.47754,1.05811,0.80176,1.68604,0.98828v-7.92383
	c-2.92041-0.53857-5.14209-3.10059-5.14209-6.17627c0-3.07471,2.22168-5.63721,5.14209-6.17578v-4.10889
	c0-0.63232,0.51123-1.14355,1.14307-1.14355c0.63037,0,1.14258,0.51123,1.14258,1.14355v4.10889
	c2.9209,0.53857,5.14258,3.10107,5.14258,6.17578c0,0.63184-0.51074,1.14307-1.1416,1.14307
	c-0.63184,0-1.14453-0.51123-1.14453-1.14307c0-1.80615-1.20996-3.31787-2.85645-3.81299v7.92529
	c1.24414,0.22656,2.39062,0.81592,3.30371,1.729c1.18652,1.1875,1.83887,2.76367,1.83887,4.44238l0,0v0.00293v0.00195l0,0
	C38.29297,38.83398,37.64062,40.41113,36.45508,41.59766z M30.86475,23.05566c-1.64551,0.49512-2.85742,2.00684-2.85742,3.81299
	c0,1.80566,1.21191,3.31836,2.85742,3.81396V23.05566z M36.00684,37.15527v-0.00293
	c0.00293-1.06738-0.41406-2.07129-1.16895-2.82617c-0.47656-0.47656-1.05859-0.80078-1.6875-0.98828v7.63184
	c0.62891-0.1875,1.21094-0.50977,1.6875-0.9873c0.75488-0.75488,1.17188-1.76074,1.16895-2.82617V37.15527z"/>
</svg>
