<?xml version="1.0" encoding="utf-8"?>
<!-- Generator: Adobe Illustrator 16.0.4, SVG Export Plug-In . SVG Version: 6.00 Build 0)  -->
<!DOCTYPE svg PUBLIC "-//W3C//DTD SVG 1.1//EN" "http://www.w3.org/Graphics/SVG/1.1/DTD/svg11.dtd">
<svg version="1.1" id="Layer_1" xmlns="http://www.w3.org/2000/svg" xmlns:xlink="http://www.w3.org/1999/xlink" x="0px" y="0px"
	 width="64px" height="64px" viewBox="0 0 64 64" enable-background="new 0 0 64 64" xml:space="preserve">
<g>
	<path fill="none" d="M22.77051,31.75c-5.24414,0-9.51074,4.2666-9.51074,9.50977c0,5.24512,4.2666,9.5127,9.51074,9.5127
		s9.51074-4.26758,9.51074-9.5127C32.28125,36.0166,28.01465,31.75,22.77051,31.75z M22.77051,47.625
		c-3.50879,0-6.36328-2.85547-6.36328-6.36523c0-3.50781,2.85449-6.3623,6.36328-6.3623s6.36328,2.85449,6.36328,6.3623
		C29.13379,44.76953,26.2793,47.625,22.77051,47.625z"/>
	<path fill="none" d="M50.5498,7.93945c-3.05566,0-5.54199,2.48535-5.54199,5.54004c0,3.05664,2.48633,5.54297,5.54199,5.54297
		c3.05664,0,5.54297-2.48633,5.54297-5.54297C56.09277,10.4248,53.60645,7.93945,50.5498,7.93945z M50.5498,15.875
		c-1.32031,0-2.39453-1.07422-2.39453-2.39551c0-1.31934,1.07422-2.39258,2.39453-2.39258
		c1.32129,0,2.39551,1.07324,2.39551,2.39258C52.94531,14.80078,51.87109,15.875,50.5498,15.875z"/>
	<path fill="none" d="M44.55273,45.89648l-3.21387-1.85254c0.13477-0.91406,0.20215-1.84668,0.20215-2.78418
		c0-0.92285-0.07031-1.85645-0.21191-2.78711l3.2002-1.84863c0.75293-0.43457,1.01074-1.39648,0.57617-2.14941l-5.29102-9.16699
		c-0.20996-0.36328-0.55664-0.62891-0.96289-0.73535c-0.40527-0.10645-0.83789-0.0459-1.20117,0.16797l-3.10352,1.83496
		c-1.40332-1.17676-2.85156-2.12793-4.72363-2.81543v-3.3457c0-0.86914-0.70459-1.57324-1.57373-1.57324H17.6665
		c-0.86914,0-1.57373,0.7041-1.57373,1.57324v3.34277c-1.76367,0.63574-3.34082,1.54492-4.92041,2.83496l-3.26074-1.86328
		c-0.75195-0.42969-1.70801-0.17188-2.14258,0.57617l-5.31543,9.16699c-0.20898,0.36133-0.2666,0.79102-0.15918,1.19434
		s0.37061,0.74805,0.73242,0.95703l3.19189,1.84863c-0.1416,0.93457-0.21338,1.86914-0.21338,2.78809
		c0,0.93164,0.06934,1.86523,0.20654,2.78613l-3.20557,1.85156c-0.75244,0.43457-1.01074,1.39648-0.57617,2.14941l5.29102,9.16699
		c0.43164,0.74707,1.38477,1.00977,2.13721,0.58301l3.30957-1.86914c1.57861,1.29004,3.15625,2.2002,4.9248,2.83887v3.65918
		C16.09277,63.29492,16.79736,64,17.6665,64h10.58301c0.86914,0,1.57373-0.70508,1.57373-1.57422V58.7627
		c1.87061-0.68848,3.32129-1.64062,4.73047-2.81934l3.15137,1.84277c0.36133,0.21191,0.79395,0.27148,1.19824,0.16113
		c0.40625-0.10742,0.75098-0.37305,0.95996-0.73633l5.26855-9.16699C45.56445,47.29102,45.30566,46.33008,44.55273,45.89648z
		 M37.92383,54.26855l-2.75781-1.61328c-0.58984-0.34473-1.33887-0.27148-1.84863,0.19043
		c-1.7373,1.56836-3.19482,2.60449-5.49902,3.26172c-0.67627,0.19238-1.14258,0.81055-1.14258,1.51367v3.23145h-7.43555v-3.23145
		c0-0.70312-0.46631-1.32129-1.14209-1.51367c-2.12891-0.60645-3.8291-1.58203-5.68604-3.25977
		c-0.50195-0.4541-1.23877-0.53809-1.82959-0.20312l-2.91504,1.64551l-3.72461-6.4541l2.80078-1.61719
		c0.58984-0.33984,0.89404-1.02246,0.75244-1.68945c-0.22803-1.07129-0.34326-2.17188-0.34326-3.26953
		c0-1.07129,0.11816-2.17188,0.35156-3.26855c0.14111-0.66602-0.16162-1.34766-0.75098-1.68945L3.9668,34.68848l3.74072-6.45117
		l2.86719,1.6377c0.59131,0.33789,1.33154,0.25781,1.83545-0.19824c1.86279-1.68164,3.56396-2.65625,5.68652-3.26074
		c0.67676-0.19238,1.14355-0.81055,1.14355-1.51367v-2.91406h7.43555v2.91406c0,0.70312,0.4668,1.32129,1.14355,1.51367
		c2.29883,0.6543,3.80664,1.73145,5.49316,3.25977c0.5127,0.46289,1.26562,0.53809,1.85742,0.1875l2.71387-1.60449l3.70898,6.42676
		l-2.79688,1.61523c-0.59082,0.3418-0.89453,1.02441-0.75195,1.69141c0.23145,1.08984,0.34961,2.18945,0.34961,3.26758
		c0,1.1123-0.11426,2.21289-0.33691,3.27148c-0.14062,0.66602,0.16406,1.34863,0.75391,1.68848l2.80957,1.61914L37.92383,54.26855z"
		/>
	<path fill="none" d="M62.99023,15.77734l-1.68652-0.96973c0.05273-0.43652,0.0791-0.87988,0.0791-1.32812
		c0-0.4375-0.02832-0.88281-0.08594-1.33105l1.67285-0.96484c0.3623-0.20898,0.625-0.55273,0.73438-0.95605
		c0.10742-0.40234,0.05078-0.83301-0.1582-1.19434L60.90039,4.4502c-0.20996-0.36523-0.55957-0.63086-0.9668-0.73633
		c-0.4082-0.10742-0.8418-0.04395-1.2041,0.17285L57.1543,4.8291c-0.68359-0.51953-1.42285-0.95898-2.19727-1.30371V1.57422
		C54.95703,0.7041,54.25195,0,53.38281,0H48.0918c-0.86816,0-1.57324,0.7041-1.57324,1.57422v1.94141
		c-0.86621,0.36523-1.68359,0.82324-2.39258,1.33984l-1.74414-0.98828c-0.74902-0.4248-1.7002-0.16797-2.13477,0.57812
		L37.5791,9.02832c-0.21094,0.36133-0.26855,0.79102-0.16211,1.19531c0.10742,0.4043,0.37109,0.74902,0.73242,0.95801
		l1.66211,0.96289c-0.05957,0.45215-0.08887,0.89844-0.08887,1.33496c0,0.44238,0.02832,0.88672,0.08398,1.33203l-1.67773,0.96582
		c-0.36133,0.20898-0.62598,0.55273-0.7334,0.95605c-0.1084,0.40332-0.05273,0.83301,0.15625,1.19434l2.64648,4.58398
		c0.43164,0.74609,1.38184,1.00781,2.13086,0.58789l1.78809-0.99902c0.71191,0.51953,1.53223,0.98047,2.40137,1.34766v1.93848
		c0,0.87012,0.70508,1.57422,1.57324,1.57422h5.29102c0.86914,0,1.57422-0.7041,1.57422-1.57422v-1.9502
		c0.77637-0.34473,1.51953-0.78613,2.20703-1.31055l1.62012,0.95508c0.36426,0.21484,0.79688,0.27344,1.20312,0.16504
		c0.40723-0.10742,0.75293-0.37402,0.96191-0.73926l2.62305-4.58398C64.00391,17.16895,63.74316,16.20898,62.99023,15.77734z
		 M59.00879,19.56055l-1.20996-0.71387c-0.60449-0.35449-1.37012-0.26855-1.88086,0.21289
		c-0.87402,0.82715-1.91406,1.44727-3.00781,1.79199c-0.65527,0.20703-1.10059,0.81445-1.10059,1.50098v1.46094h-2.14355v-1.46094
		c0-0.68652-0.44629-1.29395-1.10059-1.50098c-1.22559-0.38574-2.41992-1.05566-3.19434-1.79102
		c-0.49902-0.47363-1.24902-0.56738-1.85059-0.23145l-1.37207,0.76562l-1.08301-1.87598l1.27148-0.73242
		c0.60352-0.34766,0.90723-1.05078,0.74512-1.72852c-0.14062-0.59277-0.21191-1.19043-0.21191-1.77832
		c0-0.56543,0.07324-1.16309,0.21973-1.77539c0.16211-0.67676-0.13965-1.37891-0.74121-1.72754L41.0918,9.24902l1.09277-1.87598
		l1.33008,0.75391c0.59766,0.33984,1.35449,0.24902,1.8584-0.22754c0.77246-0.73242,1.96582-1.40039,3.19238-1.78711
		c0.6543-0.20703,1.10059-0.81445,1.10059-1.50098V3.14746h2.14355V4.6084c0,0.68555,0.44336,1.29199,1.09668,1.5
		c1.10156,0.34961,2.14062,0.96875,3.00781,1.79102c0.51172,0.48535,1.28418,0.57129,1.89062,0.20898l1.16992-0.7002
		l1.05859,1.83594l-1.26758,0.73145c-0.60156,0.34668-0.90527,1.04785-0.74512,1.72363
		c0.14258,0.60645,0.21484,1.20508,0.21484,1.78027c0,0.61426-0.06738,1.21289-0.20312,1.78027
		c-0.15918,0.67676,0.14355,1.37988,0.74805,1.72656l1.28027,0.73633L59.00879,19.56055z"/>
</g>
</svg>
