<?xml version="1.0" encoding="utf-8"?>
<!-- Generator: Adobe Illustrator 16.0.4, SVG Export Plug-In . SVG Version: 6.00 Build 0)  -->
<!DOCTYPE svg PUBLIC "-//W3C//DTD SVG 1.1//EN" "http://www.w3.org/Graphics/SVG/1.1/DTD/svg11.dtd">
<svg version="1.1" id="Layer_1" xmlns="http://www.w3.org/2000/svg" xmlns:xlink="http://www.w3.org/1999/xlink" x="0px" y="0px"
	 width="64px" height="64px" viewBox="0 0 64 64" enable-background="new 0 0 64 64" xml:space="preserve">
<path fill="none" d="M59.99805,0H3.99512C1.78809,0,0,1.78906,0,4.00098v56.00391C0,62.2168,1.78809,64,3.99512,64h56.00293
	C62.21094,64,64,62.2168,64,60.00488V4.00098C64,1.78906,62.21094,0,59.99805,0z M7.99609,56.00391V35.99902l12.00293-11.99805
	l31.99805,32.00293H7.99609z M46,24.00098c-3.31348,0-6.00098-2.6875-6.00098-6.00098c0-3.30859,2.6875-5.99707,6.00098-5.99707
	c3.30859,0,5.99707,2.68848,5.99707,5.99707C51.99707,21.31348,49.30859,24.00098,46,24.00098z"/>
</svg>
