<?xml version="1.0" encoding="utf-8"?>
<!-- Generator: Adobe Illustrator 16.0.4, SVG Export Plug-In . SVG Version: 6.00 Build 0)  -->
<!DOCTYPE svg PUBLIC "-//W3C//DTD SVG 1.1//EN" "http://www.w3.org/Graphics/SVG/1.1/DTD/svg11.dtd">
<svg version="1.1" id="Layer_1" xmlns="http://www.w3.org/2000/svg" xmlns:xlink="http://www.w3.org/1999/xlink" x="0px" y="0px"
	 width="64px" height="64px" viewBox="0 0 64 64" enable-background="new 0 0 64 64" xml:space="preserve">
<g>
	<path fill="none" d="M36.60254,21.80371h23.52148c0.33301,0,0.60352-0.26953,0.60352-0.60352
		c0-0.33301-0.27051-0.60352-0.60352-0.60352H36.60254c-0.33398,0-0.60352,0.27051-0.60352,0.60352
		C35.99902,21.53418,36.26855,21.80371,36.60254,21.80371z M36.60254,24.74902h20.24902c0.33301,0,0.60352-0.26953,0.60352-0.60352
		c0-0.33301-0.27051-0.60352-0.60352-0.60352H36.60254c-0.33398,0-0.60352,0.27051-0.60352,0.60352
		C35.99902,24.47949,36.26855,24.74902,36.60254,24.74902z M36.60254,28.02148h19.57422c0.33301,0,0.60352-0.26953,0.60352-0.60352
		c0-0.33301-0.27051-0.60254-0.60352-0.60254H36.60254c-0.33398,0-0.60352,0.26953-0.60352,0.60254
		C35.99902,27.75195,36.26855,28.02148,36.60254,28.02148z M36.60254,30.9668h23.52148c0.33301,0,0.60352-0.26953,0.60352-0.60352
		c0-0.33301-0.27051-0.60254-0.60352-0.60254H36.60254c-0.33398,0-0.60352,0.26953-0.60352,0.60254
		C35.99902,30.69727,36.26855,30.9668,36.60254,30.9668z M63.39648,33.0332H36.60254c-0.33398,0-0.60352,0.26953-0.60352,0.60352
		c0,0.33301,0.26953,0.60254,0.60352,0.60254h26.79395c0.33301,0,0.60352-0.26953,0.60352-0.60254
		C64,33.30273,63.72949,33.0332,63.39648,33.0332z M36.60254,37.18457h19.92188c0.33301,0,0.60352-0.26953,0.60352-0.60254
		c0-0.33398-0.27051-0.60352-0.60352-0.60352H36.60254c-0.33398,0-0.60352,0.26953-0.60352,0.60352
		C35.99902,36.91504,36.26855,37.18457,36.60254,37.18457z M61.10547,39.25098H36.60254c-0.33398,0-0.60352,0.27051-0.60352,0.60352
		s0.26953,0.60352,0.60352,0.60352h24.50293c0.33398,0,0.60352-0.27051,0.60352-0.60352S61.43945,39.25098,61.10547,39.25098z
		 M56.52441,42.19629H36.60254c-0.33398,0-0.60352,0.26953-0.60352,0.60352c0,0.33301,0.26953,0.60352,0.60352,0.60352h19.92188
		c0.33301,0,0.60352-0.27051,0.60352-0.60352C57.12793,42.46582,56.85742,42.19629,56.52441,42.19629z M0.60352,21.80371h25.1582
		c0.33301,0,0.60352-0.26953,0.60352-0.60352c0-0.33301-0.27051-0.60352-0.60352-0.60352H0.60352
		C0.27002,20.59668,0,20.86719,0,21.2002C0,21.53418,0.27002,21.80371,0.60352,21.80371z M0.60352,24.74902h21.88574
		c0.33301,0,0.60352-0.26953,0.60352-0.60352c0-0.33301-0.27051-0.60352-0.60352-0.60352H0.60352
		C0.27002,23.54199,0,23.8125,0,24.14551C0,24.47949,0.27002,24.74902,0.60352,24.74902z M0.60352,28.02148h21.21094
		c0.33301,0,0.60254-0.26953,0.60254-0.60352c0-0.33301-0.26953-0.60254-0.60254-0.60254H0.60352
		C0.27002,26.81543,0,27.08496,0,27.41797C0,27.75195,0.27002,28.02148,0.60352,28.02148z M0.60352,30.9668h25.1582
		c0.33301,0,0.60352-0.26953,0.60352-0.60352c0-0.33301-0.27051-0.60254-0.60352-0.60254H0.60352
		C0.27002,29.76074,0,30.03027,0,30.36328C0,30.69727,0.27002,30.9668,0.60352,30.9668z M29.03418,33.0332H0.60352
		C0.27002,33.0332,0,33.30273,0,33.63672c0,0.33301,0.27002,0.60254,0.60352,0.60254h28.43066
		c0.33301,0,0.60352-0.26953,0.60352-0.60254C29.6377,33.30273,29.36719,33.0332,29.03418,33.0332z M0.60352,37.18457h21.55859
		c0.33301,0,0.60254-0.26953,0.60254-0.60254c0-0.33398-0.26953-0.60352-0.60254-0.60352H0.60352
		C0.27002,35.97852,0,36.24805,0,36.58203C0,36.91504,0.27002,37.18457,0.60352,37.18457z M26.74316,39.25098H0.60352
		C0.27002,39.25098,0,39.52148,0,39.85449s0.27002,0.60352,0.60352,0.60352h26.13965c0.33398,0,0.60352-0.27051,0.60352-0.60352
		S27.07715,39.25098,26.74316,39.25098z M22.16211,42.19629H0.60352C0.27002,42.19629,0,42.46582,0,42.7998
		c0,0.33301,0.27002,0.60352,0.60352,0.60352h21.55859c0.33301,0,0.60254-0.27051,0.60254-0.60352
		C22.76465,42.46582,22.49512,42.19629,22.16211,42.19629z"/>
</g>
</svg>
