<?xml version="1.0" encoding="utf-8"?>
<!-- Generator: Adobe Illustrator 16.0.4, SVG Export Plug-In . SVG Version: 6.00 Build 0)  -->
<!DOCTYPE svg PUBLIC "-//W3C//DTD SVG 1.1//EN" "http://www.w3.org/Graphics/SVG/1.1/DTD/svg11.dtd">
<svg version="1.1" id="Layer_1" xmlns="http://www.w3.org/2000/svg" xmlns:xlink="http://www.w3.org/1999/xlink" x="0px" y="0px"
	 width="64px" height="64px" viewBox="0 0 64 64" enable-background="new 0 0 64 64" xml:space="preserve">
<g>
	<path fill="none" d="M41.99219,19.7627H0.31592C0.1416,19.7627,0,19.90332,0,20.07812v23.71484
		c0,0.1748,0.1416,0.31641,0.31592,0.31641h41.36084c0.34863,0,0.63086-0.2832,0.63086-0.63184V20.07812
		C42.30762,19.90332,42.16699,19.7627,41.99219,19.7627z M63.68457,19.7627H44.84473c-0.1748,0-0.31641,0.14062-0.31641,0.31543
		V30.6582c0,0.17383,0.1416,0.31543,0.31641,0.31543h18.52344C63.7168,30.97363,64,30.69043,64,30.3418V20.07812
		C64,19.90332,63.8584,19.7627,63.68457,19.7627z M63.68457,33.03613H44.84473c-0.1748,0-0.31641,0.1416-0.31641,0.31543v10.57031
		c0,0.1748,0.1416,0.31543,0.31641,0.31543h18.52344C63.7168,44.2373,64,43.95508,64,43.60547V33.35156
		C64,33.17773,63.8584,33.03613,63.68457,33.03613z"/>
</g>
</svg>
