<?xml version="1.0" encoding="utf-8"?>
<!-- Generator: Adobe Illustrator 16.0.4, SVG Export Plug-In . SVG Version: 6.00 Build 0)  -->
<!DOCTYPE svg PUBLIC "-//W3C//DTD SVG 1.1//EN" "http://www.w3.org/Graphics/SVG/1.1/DTD/svg11.dtd">
<svg version="1.1" id="Layer_1" xmlns="http://www.w3.org/2000/svg" xmlns:xlink="http://www.w3.org/1999/xlink" x="0px" y="0px"
	 width="64px" height="64px" viewBox="0 0 64 64" enable-background="new 0 0 64 64" xml:space="preserve">
<g>
	<path fill="none" d="M39.09863,20.66602H0.29395C0.13184,20.66602,0,20.79785,0,20.95996v22.08008
		c0,0.16309,0.13184,0.29395,0.29395,0.29395h38.51074c0.32422,0,0.58789-0.2627,0.58789-0.58789V20.95996
		C39.39258,20.79785,39.26074,20.66602,39.09863,20.66602z M43.79395,23.0459h16.72363c0.29883,0,0.54199-0.24316,0.54199-0.54199
		c0-0.2998-0.24316-0.54199-0.54199-0.54199H43.79395c-0.2998,0-0.54199,0.24219-0.54199,0.54199
		C43.25195,22.80273,43.49414,23.0459,43.79395,23.0459z M43.79395,25.69238h13.7832c0.29883,0,0.54199-0.24316,0.54199-0.54199
		c0-0.2998-0.24316-0.54297-0.54199-0.54297h-13.7832c-0.2998,0-0.54199,0.24316-0.54199,0.54297
		C43.25195,25.44922,43.49414,25.69238,43.79395,25.69238z M43.79395,28.63281H56.9707c0.29883,0,0.54199-0.24316,0.54199-0.54199
		c0-0.2998-0.24316-0.54297-0.54199-0.54297H43.79395c-0.2998,0-0.54199,0.24316-0.54199,0.54297
		C43.25195,28.38965,43.49414,28.63281,43.79395,28.63281z M43.79395,31.2793h16.72363c0.29883,0,0.54199-0.24316,0.54199-0.54297
		c0-0.29883-0.24316-0.54199-0.54199-0.54199H43.79395c-0.2998,0-0.54199,0.24316-0.54199,0.54199
		C43.25195,31.03613,43.49414,31.2793,43.79395,31.2793z M63.45801,33.13477H43.79395c-0.2998,0-0.54199,0.24316-0.54199,0.54199
		c0,0.2998,0.24219,0.54199,0.54199,0.54199h19.66406c0.29883,0,0.54199-0.24219,0.54199-0.54199
		C64,33.37793,63.75684,33.13477,63.45801,33.13477z M43.79395,36.86523H57.2832c0.29883,0,0.54199-0.24219,0.54199-0.54199
		s-0.24316-0.54199-0.54199-0.54199H43.79395c-0.2998,0-0.54199,0.24219-0.54199,0.54199S43.49414,36.86523,43.79395,36.86523z
		 M61.39941,38.72168H43.79395c-0.2998,0-0.54199,0.24316-0.54199,0.54199c0,0.2998,0.24219,0.54199,0.54199,0.54199h17.60547
		c0.2998,0,0.54199-0.24219,0.54199-0.54199C61.94141,38.96484,61.69922,38.72168,61.39941,38.72168z M57.2832,41.36816H43.79395
		c-0.2998,0-0.54199,0.24219-0.54199,0.54199s0.24219,0.54199,0.54199,0.54199H57.2832c0.29883,0,0.54199-0.24219,0.54199-0.54199
		S57.58203,41.36816,57.2832,41.36816z"/>
</g>
</svg>
