<?xml version="1.0" encoding="utf-8"?>
<!-- Generator: Adobe Illustrator 16.0.4, SVG Export Plug-In . SVG Version: 6.00 Build 0)  -->
<!DOCTYPE svg PUBLIC "-//W3C//DTD SVG 1.1//EN" "http://www.w3.org/Graphics/SVG/1.1/DTD/svg11.dtd">
<svg version="1.1" id="Layer_1" xmlns="http://www.w3.org/2000/svg" xmlns:xlink="http://www.w3.org/1999/xlink" x="0px" y="0px"
	 width="64px" height="64px" viewBox="0 0 64 64" enable-background="new 0 0 64 64" xml:space="preserve">
<path fill="none" d="M14.13867,14.68066c-8.81201,8.7793-9.60352,22.4873-2.43555,32.18652L1.12451,57.40918
	c-1.49951,1.49414-1.49951,3.90039,0,5.39355c1.49561,1.49023,3.91553,1.49023,5.41113,0l10.59473-10.55664
	c9.73047,7.05078,23.42627,6.23535,32.20166-2.50781C59.05469,40.05859,61.06738,26.36133,64,0.0791
	C37.60254,2.99658,23.85742,4.99707,14.13867,14.68066z M39.18848,30.42139c-8.3418,8.30713-22.23779,16.61377-22.23779,16.61377
	s8.34033-13.84082,16.67822-22.15576c8.33594-8.29541,22.23926-16.60645,22.23926-16.60645S47.52246,22.11816,39.18848,30.42139z"/>
</svg>
