<?xml version="1.0" encoding="utf-8"?>
<!-- Generator: Adobe Illustrator 16.0.4, SVG Export Plug-In . SVG Version: 6.00 Build 0)  -->
<!DOCTYPE svg PUBLIC "-//W3C//DTD SVG 1.1//EN" "http://www.w3.org/Graphics/SVG/1.1/DTD/svg11.dtd">
<svg version="1.1" id="Layer_1" xmlns="http://www.w3.org/2000/svg" xmlns:xlink="http://www.w3.org/1999/xlink" x="0px" y="0px"
	 width="64px" height="64px" viewBox="0 0 64 64" enable-background="new 0 0 64 64" xml:space="preserve">
<g>
	<path fill="none" d="M35.49121,55.85449h-6.98193c-0.96436,0-1.74561,0.78223-1.74561,1.74512
		c0,0.96387,0.78125,1.74609,1.74561,1.74609h6.98193c0.96289,0,1.74512-0.78223,1.74512-1.74609
		C37.23633,56.63672,36.4541,55.85449,35.49121,55.85449z"/>
	<path fill="none" d="M33.16406,60.50879h-2.32764c-0.96436,0-1.74561,0.78223-1.74561,1.74609
		c0,0.96289,0.78125,1.74512,1.74561,1.74512h2.32764c0.96289,0,1.74512-0.78223,1.74512-1.74512
		C34.90918,61.29102,34.12695,60.50879,33.16406,60.50879z"/>
	<path fill="none" d="M32,10.47266c-11.22852,0-20.36377,9.13525-20.36377,20.36377c0,8.82178,5.67676,16.57861,13.96387,19.31396
		v2.79492c0,0.96387,0.78125,1.74512,1.74512,1.74512h9.30908c0.96387,0,1.74609-0.78125,1.74609-1.74512v-2.79492
		c8.28613-2.73535,13.96289-10.49219,13.96289-19.31396C52.36328,19.60791,43.22852,10.47266,32,10.47266z M36.21973,47.1543
		c-0.77246,0.19922-1.31055,0.89355-1.31055,1.69043v2.35547h-5.81836v-2.35547c0-0.79688-0.53857-1.49121-1.30957-1.69043
		c-7.45068-1.9209-12.65381-8.63184-12.65381-16.31787c0-9.30371,7.56934-16.87256,16.87256-16.87256
		c9.30371,0,16.87305,7.56885,16.87305,16.87256C48.87305,38.52344,43.66895,45.2334,36.21973,47.1543z"/>
	<path fill="none" d="M6.3999,27.92725h-4.6543C0.78125,27.92725,0,28.7085,0,29.67285c0,0.96387,0.78125,1.74512,1.74561,1.74512
		h4.6543c0.96436,0,1.74561-0.78125,1.74561-1.74512C8.14551,28.7085,7.36426,27.92725,6.3999,27.92725z"/>
	<path fill="none" d="M13.31152,15.77979c0.34082,0.34082,0.78711,0.51123,1.23389,0.51123s0.89307-0.17041,1.23438-0.51123
		c0.68164-0.68164,0.68164-1.78711,0-2.46826L9.96143,7.49316c-0.68164-0.68164-1.78662-0.68164-2.46826,0
		c-0.68164,0.68115-0.68164,1.78711,0,2.46826L13.31152,15.77979z"/>
	<path fill="none" d="M32,8.14551c0.96387,0,1.74512-0.78125,1.74512-1.74561v-4.6543C33.74512,0.78125,32.96387,0,32,0
		c-0.96436,0-1.74561,0.78125-1.74561,1.74561v4.6543C30.25439,7.36426,31.03564,8.14551,32,8.14551z"/>
	<path fill="none" d="M49.4541,16.29102c0.44727,0,0.89355-0.17041,1.23438-0.51123l5.81836-5.81836
		c0.68164-0.68115,0.68164-1.78711,0-2.46826c-0.68164-0.68164-1.78613-0.68164-2.46777,0l-5.81836,5.81836
		c-0.68164,0.68115-0.68164,1.78662,0,2.46826C48.56152,16.12061,49.00781,16.29102,49.4541,16.29102z"/>
	<path fill="none" d="M62.25488,27.92725h-4.65527c-0.96289,0-1.74512,0.78125-1.74512,1.74561
		c0,0.96387,0.78223,1.74512,1.74512,1.74512h4.65527c0.96289,0,1.74512-0.78125,1.74512-1.74512
		C64,28.7085,63.21777,27.92725,62.25488,27.92725z"/>
	<path fill="none" d="M31.99756,25.01807c0.00146,0,0.00244,0,0.00342,0c0.00146,0,0.00244,0,0.00342,0
		c0.96045,0.00146,1.74268,0.78369,1.74268,1.74512c0,0.96387,0.78125,1.74512,1.74512,1.74512s1.74512-0.78125,1.74512-1.74512
		c0-2.27295-1.46387-4.19238-3.49023-4.91504v-0.90283c0-0.96387-0.78223-1.74512-1.74609-1.74512s-1.74512,0.78125-1.74512,1.74512
		v0.90283c-2.02734,0.72266-3.4917,2.64209-3.4917,4.91504c0,2.86035,2.30566,5.19238,5.15625,5.23584
		c0.02637,0.00098,0.05225,0.00146,0.07861,0.00146c0.9624,0,1.74512,0.78369,1.74512,1.74658
		c0,0.95996-0.7793,1.74023-1.73828,1.74414c-0.00146,0-0.00342,0-0.00488,0c-0.00195,0-0.00439,0.00098-0.00684,0.00098
		c-0.95947-0.00391-1.74023-0.78418-1.74023-1.74512c0-0.96436-0.78125-1.74609-1.74561-1.74609
		c-0.96387,0-1.74512,0.78174-1.74512,1.74609c0,2.27246,1.46484,4.19238,3.49268,4.91406v0.90234
		c0,0.96387,0.78125,1.74609,1.74512,1.74609s1.74609-0.78223,1.74609-1.74609v-0.90332
		c2.02539-0.72266,3.48828-2.6416,3.48828-4.91309c0-2.86133-2.30566-5.19385-5.15576-5.23682
		c-0.02637-0.00098-0.05225-0.00195-0.07861-0.00195c-0.9624,0-1.74609-0.78271-1.74609-1.74512
		C30.25488,25.80176,31.0376,25.01953,31.99756,25.01807z"/>
</g>
</svg>
