<?xml version="1.0" encoding="utf-8"?>
<!-- Generator: Adobe Illustrator 16.0.4, SVG Export Plug-In . SVG Version: 6.00 Build 0)  -->
<!DOCTYPE svg PUBLIC "-//W3C//DTD SVG 1.1//EN" "http://www.w3.org/Graphics/SVG/1.1/DTD/svg11.dtd">
<svg version="1.1" id="Layer_1" xmlns="http://www.w3.org/2000/svg" xmlns:xlink="http://www.w3.org/1999/xlink" x="0px" y="0px"
	 width="64px" height="64px" viewBox="0 0 64 64" enable-background="new 0 0 64 64" xml:space="preserve">
<path fill="none" d="M32,0C18.74219,0,8,10.75,8,24c0,6.15625,2.33594,11.75,6.14844,16L32,64l17.85156-24
	C53.66406,35.75,56,30.15625,56,24C56,10.75,45.25,0,32,0z M32,32c-4.42188,0-8-3.57812-8-8c0-4.41211,3.57812-8,8-8
	c4.41406,0,8,3.58789,8,8C40,28.42188,36.41406,32,32,32z"/>
</svg>
