<?xml version="1.0" encoding="utf-8"?>
<!-- Generator: Adobe Illustrator 16.0.4, SVG Export Plug-In . SVG Version: 6.00 Build 0)  -->
<!DOCTYPE svg PUBLIC "-//W3C//DTD SVG 1.1//EN" "http://www.w3.org/Graphics/SVG/1.1/DTD/svg11.dtd">
<svg version="1.1" id="Layer_1" xmlns="http://www.w3.org/2000/svg" xmlns:xlink="http://www.w3.org/1999/xlink" x="0px" y="0px"
	 width="64px" height="64px" viewBox="0 0 64 64" enable-background="new 0 0 64 64" xml:space="preserve">
<path fill="none" d="M52.08301,31.70996c-6.57227,0-11.91895,5.3457-11.91895,11.91602
	c0,6.13477,9.75586,18.48242,10.86719,19.86914C51.28711,63.81445,51.67383,64,52.08301,64s0.7959-0.18555,1.05078-0.50488
	C54.24609,62.1084,64,49.76074,64,43.62598C64,37.05566,58.6543,31.70996,52.08301,31.70996z M52.08301,60.46191
	c-3.2998-4.3252-9.22363-12.90527-9.22363-16.83594c0-5.08496,4.1377-9.22168,9.22363-9.22168
	c5.08496,0,9.22266,4.13672,9.22266,9.22168C61.30566,47.55664,55.38184,56.13672,52.08301,60.46191z"/>
<path fill="none" d="M40.99219,27.77295V3.86523l16,10.88818v13.01953c0,0.74414,0.75586,1.34717,1.5,1.34717
	c0.74512,0,1.5-0.60303,1.5-1.34717V14.03223c0-0.45068-0.33398-0.87109-0.70898-1.12109L40.20117,0.22705
	c-0.04688-0.03027-0.125-0.04443-0.17285-0.06836c-0.0459-0.02344-0.10156-0.04639-0.15039-0.06396
	c-0.14844-0.05518-0.30957-0.09229-0.46582-0.09277c-0.00293,0-0.00684-0.00146-0.00977-0.00146
	c-0.00195,0-0.00586,0.00146-0.00781,0.00146c-0.15723,0.00049-0.31152,0.0376-0.46094,0.09277
	c-0.04883,0.01758-0.0918,0.04053-0.13574,0.06396c-0.04883,0.02393-0.10059,0.03809-0.14648,0.06836L20.37354,12.41309
	L2.09473,0.22705C1.68115-0.04932,1.14404-0.07568,0.70801,0.15967C0.27002,0.39453-0.00781,0.85107-0.00781,1.34814v44.39307
	c0,0.44922,0.229,0.87109,0.604,1.12109L19.62451,59.5459c0.04541,0.03027,0.09766,0.04395,0.14502,0.06836
	c0.0459,0.02246,0.08936,0.15332,0.13721,0.17285c0.15088,0.05469,0.30664,0.20117,0.46436,0.20117c0.00049,0-0.37891,0-0.37891,0
	v-0.10742c1,0,0.50684-0.09277,0.6582-0.14941c0.04688-0.01758,0.18262-0.06543,0.22656-0.08789
	c0.04932-0.02539,0.14941-0.05176,0.19629-0.08398L36.95117,48.9834c0.62012-0.41309,0.79883-1.25293,0.38574-1.87207
	c-0.41309-0.62012-1.10547-0.78809-1.72656-0.375L21.99219,55.9082v-41.1543l16-10.88867v23.90771
	c0,0.74414,0.75586,1.34717,1.5,1.34717S40.99219,28.51709,40.99219,27.77295z M18.99219,55.90625l-16-10.88672V3.86572l16,10.88672
	V55.90625z"/>
<path fill="none" d="M52.08301,38.05176c-3.07422,0-5.5752,2.50098-5.5752,5.57422c0,3.0752,2.50098,5.57715,5.5752,5.57715
	c3.07324,0,5.5752-2.50195,5.5752-5.57715C57.6582,40.55273,55.15625,38.05176,52.08301,38.05176z M52.08301,46.50781
	c-1.58789,0-2.88086-1.29199-2.88086-2.88184c0-1.58789,1.29297-2.87988,2.88086-2.87988s2.87988,1.29199,2.87988,2.87988
	C54.96289,45.21582,53.6709,46.50781,52.08301,46.50781z"/>
</svg>
