<?xml version="1.0" encoding="utf-8"?>
<!-- Generator: Adobe Illustrator 16.0.4, SVG Export Plug-In . SVG Version: 6.00 Build 0)  -->
<!DOCTYPE svg PUBLIC "-//W3C//DTD SVG 1.1//EN" "http://www.w3.org/Graphics/SVG/1.1/DTD/svg11.dtd">
<svg version="1.1" id="Layer_1" xmlns="http://www.w3.org/2000/svg" xmlns:xlink="http://www.w3.org/1999/xlink" x="0px" y="0px"
	 width="64px" height="64px" viewBox="0 0 64 64" enable-background="new 0 0 64 64" xml:space="preserve">
<path fill="none" d="M64,15.27832L44.56934,5.56348l-4.47559,4.47266l-1.98633,25.82422L7.69141,23.22461v5.64844L0,26.94336
	l7.9707,27.89746h9.62891l1.19824,3.5957h19.27539l15.14844-15.20801l-5.59961-27.9502H64z M47.16699,13.00293l-0.7998-3.99609
	l7.99121,3.99609H47.16699z M44.0957,9.25488l6.35742,31.73145l-10.13379-4.20898l1.97949-25.72656L44.0957,9.25488z
	 M7.69141,31.21875V45.5791L3.27148,30.11035L7.69141,31.21875z M9.9668,52.56543V31.94336l6.87402,20.62207H9.9668z
	 M37.12793,56.16113H20.43848l-9.74121-29.22266l29.43945,12.22852v-0.00098l9.8457,4.09082L37.12793,56.16113z"/>
</svg>
