<?xml version="1.0" encoding="utf-8"?>
<!-- Generator: Adobe Illustrator 16.0.4, SVG Export Plug-In . SVG Version: 6.00 Build 0)  -->
<!DOCTYPE svg PUBLIC "-//W3C//DTD SVG 1.1//EN" "http://www.w3.org/Graphics/SVG/1.1/DTD/svg11.dtd">
<svg version="1.1" id="Layer_1" xmlns="http://www.w3.org/2000/svg" xmlns:xlink="http://www.w3.org/1999/xlink" x="0px" y="0px"
	 width="64px" height="64px" viewBox="0 0 64 64" enable-background="new 0 0 64 64" xml:space="preserve">
<path fill="none" d="M60.95703,28.89746c-1.48047-1.50781-3.875-1.50781-5.36426,0c-0.03125,0.03125-0.05469,0.0625-0.08594,0.10156
	l-0.04688-0.05469l-23.00293,23.375c-5.23877,5.3291-13.71875,5.3291-18.94971,0c-5.2373-5.32129-5.2373-13.92773,0-19.24902
	L36.59863,9.60156c2.98828-3.04102,7.84473-3.04102,10.83301,0c2.98535,3.03418,2.98535,7.96191,0,10.99805L24.33691,44.06836
	c-0.75195,0.76172-1.95752,0.76172-2.70947,0c-0.75195-0.7627-0.75195-1.98926,0-2.75098l12.26904-12.4668l-0.01562-0.00781
	c0.03125-0.02344,0.0625-0.04688,0.09375-0.07031c1.48926-1.50781,1.48926-3.96191,0-5.4541
	c-1.48047-1.51953-3.8833-1.51953-5.37158,0c-0.03125,0.02344-0.05469,0.05469-0.07812,0.08594l-0.04688-0.05469l-12.26172,12.4707
	c-3.73486,3.79785-3.73486,9.95117,0,13.74805c3.73486,3.79785,9.78662,3.79785,13.53125,0L52.83887,26.1084l-0.00781-0.00781
	c5.90332-6.08301,5.87988-16.09863-0.07812-22.15039C46.80664-2.09277,37.17676-0.3877,31.19531,3.63574H31.1875L8.09033,27.33496
	c-8.22168,8.34473-8.22168,22.01465,0,30.36816c8.21973,8.35645,21.55566,8.41504,29.77783,0.05859l23.01074-23.34766
	l-0.00781,0.00781c0.02344-0.03125,0.0625-0.03906,0.08594-0.07031C62.45312,32.84375,62.44531,30.40527,60.95703,28.89746z"/>
</svg>
