<?xml version="1.0" encoding="utf-8"?>
<!-- Generator: Adobe Illustrator 16.0.4, SVG Export Plug-In . SVG Version: 6.00 Build 0)  -->
<!DOCTYPE svg PUBLIC "-//W3C//DTD SVG 1.1//EN" "http://www.w3.org/Graphics/SVG/1.1/DTD/svg11.dtd">
<svg version="1.1" id="Layer_1" xmlns="http://www.w3.org/2000/svg" xmlns:xlink="http://www.w3.org/1999/xlink" x="0px" y="0px"
	 width="64px" height="64px" viewBox="0 0 64 64" enable-background="new 0 0 64 64" xml:space="preserve">
<path fill="none" d="M0.85156,32.6001L24.12402,55.875c0.55713,0.55469,1.30176,0.85352,2.05615,0.85352
	c0.37598,0,0.75439-0.07812,1.11377-0.22266c1.08691-0.45312,1.7959-1.51367,1.7959-2.68945V42.17969
	c19.28125,0,29.0918,10.66797,34.91016,17.45508c0-22.49414-15.62891-40.72559-34.91016-40.72559V7.27148
	c0-1.17627-0.70898-2.23682-1.7959-2.68506c-0.35938-0.14941-0.73779-0.22168-1.11377-0.22168
	c-0.75439,0-1.49902,0.29395-2.05615,0.84814L0.85156,28.48779C-0.28369,29.62598-0.28369,31.46729,0.85156,32.6001z"/>
</svg>
