<?xml version="1.0" encoding="utf-8"?>
<!-- Generator: Adobe Illustrator 16.0.4, SVG Export Plug-In . SVG Version: 6.00 Build 0)  -->
<!DOCTYPE svg PUBLIC "-//W3C//DTD SVG 1.1//EN" "http://www.w3.org/Graphics/SVG/1.1/DTD/svg11.dtd">
<svg version="1.1" id="Layer_1" xmlns="http://www.w3.org/2000/svg" xmlns:xlink="http://www.w3.org/1999/xlink" x="0px" y="0px"
	 width="64px" height="64px" viewBox="0 0 64 64" enable-background="new 0 0 64 64" xml:space="preserve">
<path fill="none" d="M48.89551,60.95312c-0.50488,0-0.99121-0.2168-1.33203-0.59277L33.50195,44.79199l-7.55078,9.91211
	c-0.34473,0.4502-0.86426,0.70898-1.42627,0.70898c-0.89697,0-1.64795-0.6416-1.78564-1.52344l-2.5957-16.61719L1.27344,31.50684
	c-0.73682-0.22656-1.23486-0.86914-1.271-1.63818c-0.03662-0.76807,0.39893-1.45508,1.10986-1.74902L61.51074,3.18506
	c0.22168-0.09131,0.45312-0.1377,0.68945-0.1377c0.5459,0,1.0752,0.25879,1.41602,0.69287
	c0.34277,0.43652,0.46387,0.99707,0.33203,1.5376L50.64941,59.58105c-0.19824,0.80859-0.91895,1.37207-1.75293,1.37207H48.89551z
	 M47.95703,55.49805L58.76758,11.3252l-23.5,30.18457L47.95703,55.49805z M25.64941,49.18945
	c8.03711-10.33203,22.04395-27.83105,29.50781-37.12939L23.61621,36.17578L25.64941,49.18945z M21.8042,34.02246l31.48584-23.51514
	L7.13477,29.54834L21.8042,34.02246z"/>
<path fill="none" d="M62.81445,3.20898L0.5293,28.92236c-0.74316,0.30762-0.69043,1.37695,0.07617,1.6123l20.05859,6.12939
	l2.77344,17.75488c0.11621,0.74316,1.07031,0.98828,1.5293,0.3877l8.5166-11.17969L48.79199,60.5752
	c0.45898,0.50781,1.30469,0.29883,1.46875-0.37012L63.97461,4.20557C64.14062,3.52588,63.46387,2.94092,62.81445,3.20898z
	 M3.39355,29.61279l57.53027-23.7334L21.67773,35.19043L3.39355,29.61279z M24.82129,52.17188l-2.54688-16.29883L61.83203,5.62744
	C61.83203,5.62744,35.91309,37.8125,24.82129,52.17188z M48.98047,58.29785L34.06445,41.85547l27.62207-35.479L48.98047,58.29785z"
	/>
</svg>
