<?xml version="1.0" encoding="utf-8"?>
<!-- Generator: Adobe Illustrator 16.0.4, SVG Export Plug-In . SVG Version: 6.00 Build 0)  -->
<!DOCTYPE svg PUBLIC "-//W3C//DTD SVG 1.1//EN" "http://www.w3.org/Graphics/SVG/1.1/DTD/svg11.dtd">
<svg version="1.1" id="Layer_1" xmlns="http://www.w3.org/2000/svg" xmlns:xlink="http://www.w3.org/1999/xlink" x="0px" y="0px"
	 width="64px" height="64px" viewBox="0 0 64 64" enable-background="new 0 0 64 64" xml:space="preserve">
<path fill="none" d="M62.42578,43.0166C63.29492,43.0166,64,42.31152,64,41.44238v-8.39355
	c0-0.86914-0.70508-1.57324-1.57422-1.57324H47.21289v-4.72168c0-2.96582-2.80371-5.77051-5.77051-5.77051H22.55762
	c-1.22607,0-2.62305-1.39697-2.62305-2.62256v-6.81982h17.31152c0.86914,0,1.57324-0.70459,1.57324-1.57373V1.57373
	C38.81934,0.70459,38.11523,0,37.24609,0H1.57373C0.70459,0,0,0.70459,0,1.57373v8.39355c0,0.86914,0.70459,1.57373,1.57373,1.57373
	h15.21338v6.81982c0,2.96582,2.8042,5.77051,5.77051,5.77051h18.88477c1.22559,0,2.62305,1.39697,2.62305,2.62256v4.72168H26.75391
	c-0.86914,0-1.57373,0.7041-1.57373,1.57324v8.39355c0,0.86914,0.70459,1.57422,1.57373,1.57422h17.31152v9.44238H26.75391
	c-0.86914,0-1.57373,0.70508-1.57373,1.57422v8.39258c0,0.86914,0.70459,1.57422,1.57373,1.57422h35.67188
	C63.29492,64,64,63.29492,64,62.42578V54.0332c0-0.86914-0.70508-1.57422-1.57422-1.57422H47.21289V43.0166H62.42578z
	 M3.14746,3.14746h32.52441v5.24609H3.14746V3.14746z M60.85254,60.85254h-32.5249v-5.24609h32.5249V60.85254z M28.32764,34.62305
	h32.5249v5.24609h-32.5249V34.62305z"/>
</svg>
