<?xml version="1.0" encoding="utf-8"?>
<!-- Generator: Adobe Illustrator 16.0.4, SVG Export Plug-In . SVG Version: 6.00 Build 0)  -->
<!DOCTYPE svg PUBLIC "-//W3C//DTD SVG 1.1//EN" "http://www.w3.org/Graphics/SVG/1.1/DTD/svg11.dtd">
<svg version="1.1" id="Layer_1" xmlns="http://www.w3.org/2000/svg" xmlns:xlink="http://www.w3.org/1999/xlink" x="0px" y="0px"
	 width="64px" height="64px" viewBox="0 0 64 64" enable-background="new 0 0 64 64" xml:space="preserve">
<g>
	<path fill="none" d="M7.99609,24.00195H0v39.98047h7.99609c2.20996,0,3.99805-1.78809,3.99805-3.99805V28
		C11.99414,25.79004,10.20605,24.00195,7.99609,24.00195z M59.9707,28H43.97852V4.01172c0-2.20605-1.78809-3.99414-3.99805-3.99414
		h-3.99805c-2.20996,0-3.99805,1.78809-3.99805,3.99414v3.99805c0,8.19922-4.94287,15.22266-11.99414,18.30371
		c0,0-3.99805,1.68652-3.99805,5.68457v27.98633h3.99805c3.99805,0,7.99609,3.99805,11.99414,3.99805h23.98828
		c2.20996,0,3.56055-1.37109,3.99805-3.99805l3.99805-27.98633C64.28125,29.69043,62.18066,28,59.9707,28z"/>
</g>
</svg>
