<?xml version="1.0" encoding="utf-8"?>
<!-- Generator: Adobe Illustrator 16.0.4, SVG Export Plug-In . SVG Version: 6.00 Build 0)  -->
<!DOCTYPE svg PUBLIC "-//W3C//DTD SVG 1.1//EN" "http://www.w3.org/Graphics/SVG/1.1/DTD/svg11.dtd">
<svg version="1.1" id="Layer_1" xmlns="http://www.w3.org/2000/svg" xmlns:xlink="http://www.w3.org/1999/xlink" x="0px" y="0px"
	 width="64px" height="64px" viewBox="0 0 64 64" enable-background="new 0 0 64 64" xml:space="preserve">
<g>
	<path fill="none" d="M25,4H7.5C5.56543,4,4,5.56885,4,7.5V25c0,1.93457,1.56543,3.5,3.5,3.5H25c1.93457,0,3.5-1.56543,3.5-3.5V7.5
		C28.5,5.56885,26.93457,4,25,4z M56.5,4H39c-1.93457,0-3.5,1.56885-3.5,3.5V25c0,1.93457,1.56543,3.5,3.5,3.5h17.5
		c1.93457,0,3.5-1.56543,3.5-3.5V7.5C60,5.56885,58.43457,4,56.5,4z M25,35.5H7.5C5.56543,35.5,4,37.06836,4,39v17.5
		C4,58.43457,5.56543,60,7.5,60H25c1.93457,0,3.5-1.56543,3.5-3.5V39C28.5,37.06836,26.93457,35.5,25,35.5z M56.5,35.5H39
		c-1.93457,0-3.5,1.56836-3.5,3.5v17.5c0,1.93457,1.56543,3.5,3.5,3.5h17.5c1.93457,0,3.5-1.56543,3.5-3.5V39
		C60,37.06836,58.43457,35.5,56.5,35.5z"/>
</g>
</svg>
