<?xml version="1.0" encoding="utf-8"?>
<!-- Generator: Adobe Illustrator 16.0.4, SVG Export Plug-In . SVG Version: 6.00 Build 0)  -->
<!DOCTYPE svg PUBLIC "-//W3C//DTD SVG 1.1//EN" "http://www.w3.org/Graphics/SVG/1.1/DTD/svg11.dtd">
<svg version="1.1" id="Layer_1" xmlns="http://www.w3.org/2000/svg" xmlns:xlink="http://www.w3.org/1999/xlink" x="0px" y="0px"
	 width="64px" height="64px" viewBox="0 0 64 64" enable-background="new 0 0 64 64" xml:space="preserve">
<g>
	<path fill="none" d="M36,12h24c2.21094,0,4-1.78906,4-4c0-2.20898-1.78906-4-4-4H36c-2.21094,0-4,1.79102-4,4
		C32,10.21094,33.78906,12,36,12z M60,20H36c-2.21094,0-4,1.78906-4,4s1.78906,4,4,4h24c2.21094,0,4-1.78906,4-4S62.21094,20,60,20z
		 M20,4H4C1.78906,4,0,5.79297,0,8v16c0,2.21094,1.78906,4,4,4h16c2.21094,0,4-1.78906,4-4V8C24,5.79297,22.21094,4,20,4z M60,36H36
		c-2.21094,0-4,1.78906-4,4s1.78906,4,4,4h24c2.21094,0,4-1.78906,4-4S62.21094,36,60,36z M60,52H36c-2.21094,0-4,1.78906-4,4
		s1.78906,4,4,4h24c2.21094,0,4-1.78906,4-4S62.21094,52,60,52z M20,36H4c-2.21094,0-4,1.79297-4,4v16c0,2.21094,1.78906,4,4,4h16
		c2.21094,0,4-1.78906,4-4V40C24,37.79297,22.21094,36,20,36z"/>
</g>
</svg>
