<?xml version="1.0" encoding="utf-8"?>
<!-- Generator: Adobe Illustrator 16.0.4, SVG Export Plug-In . SVG Version: 6.00 Build 0)  -->
<!DOCTYPE svg PUBLIC "-//W3C//DTD SVG 1.1//EN" "http://www.w3.org/Graphics/SVG/1.1/DTD/svg11.dtd">
<svg version="1.1" id="Layer_1" xmlns="http://www.w3.org/2000/svg" xmlns:xlink="http://www.w3.org/1999/xlink" x="0px" y="0px"
	 width="64px" height="64px" viewBox="0 0 64 64" enable-background="new 0 0 64 64" xml:space="preserve">
<path fill="#FFFFFF" d="M53.77441,23.41211c0.01074-0.29004,0.04395-0.57422,0.04395-0.86719
	c0-11.62891-9.46191-21.09082-21.09131-21.09082c-11.62891,0-21.09082,9.46191-21.09082,21.09082
	c0,0.02734,0.00439,0.05371,0.00439,0.08105C4.74951,26.09961,0,33.22461,0,41.4541c0,11.62988,9.46143,21.0918,21.09082,21.0918
	c3.99561,0,7.72168-1.13867,10.90918-3.07617c3.1875,1.9375,6.91309,3.07617,10.90918,3.07617
	C54.53809,62.5459,64,53.08398,64,41.4541C64,33.80273,59.88965,27.1084,53.77441,23.41211z M32,55.96582
	c-4.25439-3.20703-7.05322-8.22461-7.24219-13.9043c2.46143,1.00781,5.14893,1.5752,7.96924,1.5752
	c2.26416,0,4.44189-0.36816,6.48779-1.03125C38.87109,48.06152,36.11816,52.8623,32,55.96582z M32.72705,40.72754
	c-2.7959,0-5.43652-0.65332-7.80518-1.78613C25.60303,34.05078,28.22852,29.78613,32,26.94336
	c3.92188,2.95605,6.62402,7.44727,7.16797,12.58398C37.16211,40.29004,34.99707,40.72754,32.72705,40.72754z M22.22461,37.36035
	c-4.14453-2.94727-7.01172-7.57324-7.57422-12.8877c2.00537-0.76367,4.17041-1.2002,6.44043-1.2002
	c2.98779,0,5.80273,0.73828,8.29248,2.02051C25.7627,28.32812,23.1748,32.55273,22.22461,37.36035z M34.61621,25.29297
	c2.49023-1.28223,5.30469-2.02051,8.29297-2.02051c2.79688,0,5.43555,0.65332,7.80566,1.78516
	c-0.78125,5.60938-4.12109,10.39844-8.80859,13.15527C41.10547,33.05566,38.44922,28.50586,34.61621,25.29297z M32.72705,4.36328
	c9.8208,0,17.82666,7.83203,18.15088,17.5752c-2.45996-1.00879-5.14941-1.5752-7.96875-1.5752
	c-3.99609,0-7.72168,1.13672-10.90918,3.0752c-3.1875-1.93848-6.91357-3.0752-10.90918-3.0752
	c-2.26416,0-4.44189,0.36816-6.4873,1.03125C15.20166,11.90625,23.09033,4.36328,32.72705,4.36328z M21.09082,59.63672
	c-10.02539,0-18.18164-8.15625-18.18164-18.18262c0-6.67578,3.62646-12.50586,9.00293-15.66797
	c0.9751,6.2793,4.71729,11.63867,9.9502,14.80176c-0.01221,0.29004-0.04395,0.57422-0.04395,0.86621
	c0,6.48438,2.9458,12.29004,7.56494,16.16211C26.89355,58.89941,24.07861,59.63672,21.09082,59.63672z M42.90918,59.63672
	c-2.98828,0-5.80273-0.7373-8.29297-2.02051c4.61914-3.87207,7.56543-9.67773,7.56543-16.16211
	c0-0.02637-0.00391-0.05371-0.00391-0.08008c5.71875-2.88281,9.95703-8.27441,11.23438-14.73438
	c4.6377,3.29785,7.67871,8.70312,7.67871,14.81445C61.09082,51.48047,52.93457,59.63672,42.90918,59.63672z"/>
</svg>
