<?xml version="1.0" encoding="utf-8"?>
<!-- Generator: Adobe Illustrator 16.0.4, SVG Export Plug-In . SVG Version: 6.00 Build 0)  -->
<!DOCTYPE svg PUBLIC "-//W3C//DTD SVG 1.1//EN" "http://www.w3.org/Graphics/SVG/1.1/DTD/svg11.dtd">
<svg version="1.1" id="Layer_1" xmlns="http://www.w3.org/2000/svg" xmlns:xlink="http://www.w3.org/1999/xlink" x="0px" y="0px"
	 width="64px" height="64px" viewBox="0 0 64 64" enable-background="new 0 0 64 64" xml:space="preserve">
<path fill="none" d="M64,32C64,14.32812,49.67188,0,32,0S0,14.32812,0,32s14.32812,32,32,32S64,49.67188,64,32z M29.07812,46.91406
	c-1.49219-1.49219-1.49219-3.90625,0-5.39062L34.65625,36H19.875C17.73438,36,16,34.26562,16,32.125v-0.25
	C16,29.73438,17.73438,28,19.875,28h14.72656l-5.52344-5.45898c-1.49219-1.49219-1.49219-3.90625,0-5.40039
	c1.50781-1.49219,3.94531-1.49219,5.44531,0l12.3125,12.1875c1.5,1.49219,1.5,3.90625,0,5.39844l-12.3125,12.1875
	C33.02344,48.40625,30.58594,48.40625,29.07812,46.91406z"/>
</svg>
