<?xml version="1.0" encoding="utf-8"?>
<!-- Generator: Adobe Illustrator 16.0.4, SVG Export Plug-In . SVG Version: 6.00 Build 0)  -->
<!DOCTYPE svg PUBLIC "-//W3C//DTD SVG 1.1//EN" "http://www.w3.org/Graphics/SVG/1.1/DTD/svg11.dtd">
<svg version="1.1" id="Layer_1" xmlns="http://www.w3.org/2000/svg" xmlns:xlink="http://www.w3.org/1999/xlink" x="0px" y="0px"
	 width="64px" height="64px" viewBox="0 0 64 64" enable-background="new 0 0 64 64" xml:space="preserve">
<g>
	<path fill="none" d="M7.55713,21.10303v2.75732c0,0.08691,0.06982,0.16504,0.16504,0.16504h1.03223
		c0.08691,0,0.16504-0.07812,0.16504-0.16504v-2.76611l1.94189-2.8877c0.06934-0.11279,0-0.25146-0.13818-0.25146H9.5957
		c-0.07812,0-0.11279,0.04346-0.13916,0.07764l-1.20508,1.77832L7.0459,18.03271c-0.02588-0.03418-0.06934-0.07764-0.13867-0.07764
		H5.78027c-0.13916,0-0.2085,0.13867-0.13916,0.25146L7.55713,21.10303z M19.14404,24.11182
		c1.73438,0,3.12207-1.37842,3.12207-3.11279s-1.3877-3.13086-3.12207-3.13086s-3.11279,1.39648-3.11279,3.13086
		S17.40967,24.11182,19.14404,24.11182z M19.14404,19.25586c0.9541,0,1.73438,0.78906,1.73438,1.74316
		c0,0.94531-0.78027,1.72559-1.73438,1.72559c-0.94531,0-1.7251-0.78027-1.7251-1.72559
		C17.41895,20.04492,18.19873,19.25586,19.14404,19.25586z M33.03711,17.95508h-1.06592c-0.09521,0-0.16504,0.07764-0.16504,0.16455
		v3.5127c0,0.60693-0.45947,1.09229-1.08398,1.09229c-0.61523,0-1.06641-0.48535-1.06641-1.09229v-3.5127
		c0-0.08691-0.06934-0.16455-0.16455-0.16455h-1.06689c-0.08643,0-0.16455,0.07764-0.16455,0.16455v3.58203
		c0,1.31738,1.10107,2.41016,2.4624,2.41016c1.37061,0,2.47998-1.09277,2.47998-2.41016v-3.58203
		C33.20215,18.03271,33.125,17.95508,33.03711,17.95508z M39.79395,24.02539h1.03223c0.0957,0,0.16406-0.07812,0.16406-0.16504
		v-3.23438H41l3.4248,3.44287c0.01758,0.01709,0.08691,0.04297,0.1123,0.04297h0.13867c0.08789,0,0.16602-0.06934,0.16602-0.15576
		v-5.83643c0-0.08691-0.07812-0.16455-0.16602-0.16455h-1.03906c-0.0957,0-0.16602,0.07764-0.16602,0.16455v3.07861h-0.00781
		l-3.46094-3.33008h-0.2168c-0.08594,0-0.16406,0.06934-0.16406,0.15674l0.00879,5.83545
		C39.62988,23.94727,39.70703,24.02539,39.79395,24.02539z M54.04395,24.10352c1.25684,0,2.14941-0.56396,2.14941-0.56396
		c0.03613-0.02588,0.07031-0.09521,0.07031-0.13867l-0.00879-2.33252c0-0.08643-0.06934-0.16455-0.15625-0.16455h-1.74219
		c-0.0957,0-0.16602,0.06885-0.16602,0.16455v0.8584c0,0.08691,0.07031,0.15625,0.16602,0.15625h0.5459v0.50293
		c-0.26074,0.10352-0.52051,0.13867-0.77246,0.13867c-0.94434,0-1.7168-0.78027-1.7168-1.72559
		c0-0.9541,0.7627-1.75195,1.70898-1.75195c0.4248,0,0.80566,0.11279,1.13477,0.41602
		c0.07031,0.05273,0.16504,0.05273,0.23438-0.00781l0.68457-0.72852c0.07031-0.06934,0.06152-0.17432-0.0166-0.23438
		c-0.58984-0.51172-1.3877-0.81543-2.11523-0.81543c-1.72656,0-3.11328,1.3877-3.11328,3.12207S52.31738,24.10352,54.04395,24.10352
		z M25.73486,38.49414c0.12891-0.23926,0.44531-0.8623,0.61377-1.57422c0.01953-0.09766,0.08887-0.31543-0.16846-0.38477
		l-0.54443-0.1582c-0.22705-0.06934-0.28662,0.04004-0.32617,0.24707C25.24023,37,25.11182,37.40527,24.95361,37.72168
		l-1.1377-1.14746c0.19775-0.17871,1.20703-0.78125,1.20703-1.7998c0-0.89062-0.76221-1.61328-1.86963-1.61328
		c-1.24658,0-1.86963,0.85156-1.86963,1.60254c-0.00977,0.58398,0.27686,1.00879,0.67236,1.4248l0.20801,0.22852v0.01953
		c-0.17822,0.1084-1.36523,0.68262-1.36523,1.9873c0,1.00977,0.83105,1.85938,2.08691,1.85938
		c1.28613,0,1.97852-0.63184,2.15674-0.84082l0.7124,0.72363c0.1582,0.1582,0.31641,0.1377,0.43506,0.02832l0.40527-0.41504
		c0.23779-0.22754,0.13867-0.33691,0.02002-0.45508L25.73486,38.49414z M23.11377,34.0918
		c0.51416,0,0.84082,0.36621,0.84082,0.74121c0,0.61426-0.69238,0.9502-0.84082,1.03906L22.896,35.6543
		c-0.29688-0.31641-0.52441-0.54395-0.51416-0.89062C22.38184,34.39746,22.6582,34.0918,23.11377,34.0918z M23.01465,39.22461
		c-0.5835,0-1.03857-0.38477-1.03857-0.92871c0-0.79102,0.68213-1.11816,0.84082-1.21777l1.47363,1.56348
		C24.14258,38.81055,23.75635,39.22461,23.01465,39.22461z M8.77393,36.87793c1.18799-0.68164,2.62988-2.07422,2.62988-4.02051
		c0-2.65527-2.2002-4.67822-5.25977-4.67822H0.47998C0.20215,28.1792,0,28.40723,0,28.65967v16.74072
		c0,0.25098,0.20215,0.47852,0.47998,0.47852h5.94238c3.18604,0,5.51221-2.04688,5.51221-4.87988
		C11.93457,38.67285,10.11426,37.43457,8.77393,36.87793z M2.57861,30.55615h3.41357c1.61865,0,2.60449,1.06201,2.60449,2.604
		c0,1.51758-0.98584,2.70605-2.60449,2.70605H2.57861V30.55615z M6.39697,43.55273H2.55371v-5.41016h3.46387
		c1.64355,0,3.11035,1.1123,3.11035,2.6543C9.12793,42.36426,7.93945,43.55273,6.39697,43.55273z M23.51611,27.92725
		c-5.05713,0-9.07764,4.0708-9.07764,9.12646c0,5.05859,4.02051,9.07812,9.07764,9.07812c5.05664,0,9.10303-4.01953,9.10303-9.07812
		C32.61914,31.99805,28.57275,27.92725,23.51611,27.92725z M23.51611,43.60449c-3.59131,0-6.54883-2.93359-6.54883-6.55078
		c0-3.58887,2.95752-6.59863,6.54883-6.59863c3.61572,0,6.57422,3.00977,6.57422,6.59863
		C30.09033,40.6709,27.13184,43.60449,23.51611,43.60449z M45.71777,43.52832h-6.85254V28.65967
		c0-0.25244-0.22754-0.48047-0.48047-0.48047h-1.66895c-0.27832,0-0.48047,0.22803-0.48047,0.48047v16.74072
		c0,0.25098,0.20215,0.47852,0.48047,0.47852h9.00195c0.27832,0,0.48047-0.22754,0.48047-0.47852v-1.3916
		C46.19824,43.75488,45.99609,43.52832,45.71777,43.52832z M55.125,28.1792h-5.81641c-0.25195,0-0.45508,0.22803-0.45508,0.48047
		v16.74072c0,0.25098,0.20312,0.47852,0.45508,0.47852H55.125c4.87988,0,8.875-3.96973,8.875-8.875
		C64,32.14941,60.00488,28.1792,55.125,28.1792z M54.77051,43.47754h-3.33789v-12.896h3.33789
		c3.7168,0,6.42285,2.70557,6.42285,6.42236C61.19336,40.74707,58.4873,43.47754,54.77051,43.47754z"/>
</g>
</svg>
