<?xml version="1.0" encoding="utf-8"?>
<!-- Generator: Adobe Illustrator 16.0.4, SVG Export Plug-In . SVG Version: 6.00 Build 0)  -->
<!DOCTYPE svg PUBLIC "-//W3C//DTD SVG 1.1//EN" "http://www.w3.org/Graphics/SVG/1.1/DTD/svg11.dtd">
<svg version="1.1" id="Layer_1" xmlns="http://www.w3.org/2000/svg" xmlns:xlink="http://www.w3.org/1999/xlink" x="0px" y="0px"
	 width="64px" height="64px" viewBox="0 0 64 64" enable-background="new 0 0 64 64" xml:space="preserve">
<path fill="#6EB85D" d="M7.11475,40.99414v-7.58789L0,22.45557h4.50244l4.58545,7.4209l4.58643-7.4209h4.47461l-7.0874,10.95068
	v7.58789H7.11475z"/>
<path fill="#6EB85D" d="M32.16895,31.43311c1.75098-0.36133,3.19629-1.94531,3.19629-4.25195
	c0-2.47363-1.80664-4.72559-5.33594-4.72559h-9.75586v18.53857h10.06152c3.55762,0,5.3916-2.22461,5.3916-5.03125
	C35.72656,33.65625,34.16992,31.73877,32.16895,31.43311z M24.21973,25.93018h4.94727c1.33398,0,2.16797,0.80566,2.16797,1.94531
	c0,1.19531-0.83398,1.94629-2.16797,1.94629h-4.94727V25.93018z M29.33398,37.51953h-5.11426v-4.22461h5.11426
	c1.52832,0,2.3623,0.94531,2.3623,2.11328C31.69629,36.74219,30.80762,37.51953,29.33398,37.51953z"/>
<path fill="#6EB85D" d="M44.57031,35.30859c2.86914,0,4.41797-1.66992,5.21094-3.07031l0.26367-0.46436l-3.01367-1.45752
	l-0.22461,0.43115c-0.36133,0.69531-1.19141,1.39648-2.23633,1.39648c-1.80078,0-3.10742-1.37158-3.10742-3.26172
	s1.30664-3.26172,3.10742-3.26172c1.04492,0,1.875,0.70117,2.23633,1.39648l0.22461,0.43408l3.00781-1.479l-0.25586-0.45996
	c-0.78125-1.39453-2.31836-3.05664-5.21289-3.05664c-3.83203,0-6.61523,2.70264-6.61523,6.42676
	C37.95508,32.60547,40.73828,35.30859,44.57031,35.30859z"/>
<path fill="#6EB85D" d="M57.52148,35.30859c3.75391,0,6.47852-2.70312,6.47852-6.42627c0-3.72412-2.72461-6.42676-6.47852-6.42676
	c-3.7627,0-6.49414,2.70264-6.49414,6.42676C51.02734,32.60547,53.75879,35.30859,57.52148,35.30859z M57.52148,25.62061
	c1.77734,0,2.9707,1.31055,2.9707,3.26172c0,1.92041-1.22168,3.26172-2.9707,3.26172c-1.78613,0-2.98633-1.31055-2.98633-3.26172
	S55.73535,25.62061,57.52148,25.62061z"/>
<rect x="37.95508" y="37.99414" fill="#6EB85D" width="26.04492" height="3"/>
</svg>
