<?xml version="1.0" encoding="utf-8"?>
<!-- Generator: Adobe Illustrator 16.0.4, SVG Export Plug-In . SVG Version: 6.00 Build 0)  -->
<!DOCTYPE svg PUBLIC "-//W3C//DTD SVG 1.1//EN" "http://www.w3.org/Graphics/SVG/1.1/DTD/svg11.dtd">
<svg version="1.1" id="Layer_1" xmlns="http://www.w3.org/2000/svg" xmlns:xlink="http://www.w3.org/1999/xlink" x="0px" y="0px"
	 width="64px" height="64px" viewBox="0 0 64 64" enable-background="new 0 0 64 64" xml:space="preserve">
<g>
	<path fill="none" d="M3.12158,29.62109c-0.06104,0-0.08838,0.03369-0.10889,0.06055l-0.94482,1.39404l-0.94531-1.39404
		c-0.02002-0.02686-0.0542-0.06055-0.1084-0.06055H0.12988c-0.1084,0-0.1626,0.1084-0.1084,0.19678l1.50244,2.27002V34.25
		c0,0.06934,0.0542,0.12988,0.12939,0.12988h0.80859c0.06787,0,0.12939-0.06055,0.12939-0.12988v-2.16797l1.52295-2.26416
		c0.0542-0.08838,0-0.19678-0.10889-0.19678H3.12158z M7.95557,29.55273c-1.35938,0-2.44043,1.09473-2.44043,2.4541
		s1.08105,2.44043,2.44043,2.44043c1.35986,0,2.44775-1.08105,2.44775-2.44043S9.31543,29.55273,7.95557,29.55273z
		 M7.95557,33.35938c-0.74072,0-1.35254-0.61133-1.35254-1.35254c0-0.74756,0.61182-1.36621,1.35254-1.36621
		c0.74805,0,1.35986,0.61865,1.35986,1.36621C9.31543,32.74805,8.70361,33.35938,7.95557,33.35938z M16.19629,29.62109h-0.83643
		c-0.07422,0-0.12939,0.06055-0.12939,0.12891v2.75293c0,0.47656-0.35986,0.85645-0.84961,0.85645
		c-0.48242,0-0.83643-0.37988-0.83643-0.85645V29.75c0-0.06836-0.0542-0.12891-0.12891-0.12891H12.5791
		c-0.06787,0-0.12891,0.06055-0.12891,0.12891v2.80762c0,1.0332,0.86328,1.88965,1.93066,1.88965
		c1.07422,0,1.94434-0.85645,1.94434-1.88965V29.75C16.3252,29.68164,16.26416,29.62109,16.19629,29.62109z M22.66895,29.62109
		h-0.81592c-0.07471,0-0.12891,0.06055-0.12891,0.12891v2.41309H21.7168l-2.7124-2.61035h-0.16992
		c-0.06787,0-0.12891,0.05469-0.12891,0.12207l0.00635,4.5752c0,0.06934,0.06152,0.12988,0.12939,0.12988h0.80908
		c0.07471,0,0.12891-0.06055,0.12891-0.12988v-2.53516h0.00684l2.68555,2.69922c0.01367,0.01367,0.06836,0.0332,0.08838,0.0332
		h0.10889c0.06787,0,0.12891-0.05371,0.12891-0.12207V29.75C22.79785,29.68164,22.73682,29.62109,22.66895,29.62109z
		 M28.97168,31.93262h-1.36621c-0.0752,0-0.12939,0.05371-0.12939,0.12891v0.67285c0,0.06836,0.0542,0.12207,0.12939,0.12207
		h0.42773v0.39453c-0.20361,0.08203-0.40771,0.1084-0.60498,0.1084c-0.74072,0-1.3457-0.61133-1.3457-1.35254
		c0-0.74756,0.59814-1.37256,1.33936-1.37256c0.33301,0,0.63184,0.0874,0.89014,0.32568
		c0.05469,0.04053,0.12939,0.04053,0.18408-0.00684l0.53662-0.57129c0.05469-0.0542,0.04785-0.13574-0.01367-0.18311
		c-0.46191-0.40137-1.0874-0.63916-1.65869-0.63916c-1.35303,0-2.44043,1.08789-2.44043,2.44727s1.0874,2.43457,2.44043,2.43457
		c0.98584,0,1.68604-0.44238,1.68604-0.44238c0.02734-0.02051,0.05469-0.0752,0.05469-0.1084l-0.00684-1.8291
		C29.09424,31.99316,29.03955,31.93262,28.97168,31.93262z M37.55273,33.14941c0-0.01367,0.26465-0.37402,0.42773-0.84961
		c0.02734-0.08105,0.10156-0.24512-0.08789-0.31348l-0.49707-0.17676c-0.18359-0.06738-0.22363,0.04102-0.26465,0.18359
		c-0.04785,0.16406-0.13574,0.38086-0.22461,0.52441l-0.6123-0.62598c0-0.05469,0.74219-0.45557,0.74219-1.20361
		c0-0.63232-0.58496-1.13525-1.36035-1.13525c-0.87012,0-1.31836,0.58496-1.31836,1.10156
		c0,0.39404,0.17578,0.68701,0.44824,0.97217l0.13574,0.14307v0.02051c0,0-0.93066,0.38672-0.93066,1.36621
		c0,0.70703,0.625,1.29102,1.49512,1.29102c1.01953,0,1.48145-0.52344,1.48145-0.52344l0.44238,0.44238
		c0.10938,0.10938,0.22461,0.0957,0.30566,0.01953l0.38086-0.38672c0.16992-0.16992,0.10254-0.23047,0.01465-0.3125
		L37.55273,33.14941z M35.66211,30.31348c0.29297,0,0.50293,0.20459,0.50293,0.43555c0,0.38086-0.44141,0.57812-0.44141,0.57812
		l-0.14941-0.14941c-0.17676-0.19678-0.3125-0.32617-0.3125-0.53027C35.26172,30.47021,35.41016,30.31348,35.66211,30.31348z
		 M35.62109,33.59766c-0.35938,0-0.63867-0.25195-0.63867-0.57715c0-0.55078,0.48242-0.71387,0.48242-0.71387l0.89062,0.94434
		C36.35547,33.25098,36.15137,33.59766,35.62109,33.59766z M45.34375,31.95996c0.32031-0.16992,0.78906-0.55127,0.78906-1.07471
		c0-0.71338-0.66016-1.26416-1.46191-1.26416h-1.58398c-0.07422,0-0.12988,0.06055-0.12988,0.12891v4.5
		c0,0.06934,0.05566,0.12988,0.12988,0.12988h1.68652c0.80859,0,1.48242-0.55078,1.48242-1.31152
		C46.25586,32.44238,45.7041,32.10938,45.34375,31.95996z M44.01855,30.59961h0.53027c0.25879,0,0.47559,0.19043,0.47559,0.46191
		c0,0.27246-0.2168,0.48975-0.47559,0.48975h-0.53027V30.59961z M44.63672,33.40723h-0.61816v-0.97168h0.5498
		c0.26562,0,0.55762,0.20312,0.55762,0.47559C45.12598,33.19043,44.90234,33.40723,44.63672,33.40723z M50.50488,29.55273
		c-1.35938,0-2.44141,1.09473-2.44141,2.4541s1.08203,2.44043,2.44141,2.44043s2.44727-1.08105,2.44727-2.44043
		S51.86426,29.55273,50.50488,29.55273z M50.50488,33.35938c-0.74121,0-1.35352-0.61133-1.35352-1.35254
		c0-0.74756,0.6123-1.36621,1.35352-1.36621c0.74707,0,1.35938,0.61865,1.35938,1.36621
		C51.86426,32.74805,51.25195,33.35938,50.50488,33.35938z M57.75293,33.38086h-1.61914V29.75
		c0-0.06836-0.06055-0.12891-0.12793-0.12891h-0.80957c-0.07422,0-0.12891,0.06055-0.12891,0.12891v4.5
		c0,0.06934,0.05469,0.12988,0.12891,0.12988h2.55664c0.07422,0,0.12793-0.06055,0.12793-0.12988v-0.74023
		C57.88086,33.44141,57.82715,33.38086,57.75293,33.38086z M61.61426,29.62109h-1.6582c-0.06836,0-0.12305,0.06055-0.12305,0.12891
		v4.5c0,0.06934,0.05469,0.12988,0.12305,0.12988h1.6582c1.3125,0,2.38574-1.06836,2.38574-2.38672
		C64,30.68799,62.92676,29.62109,61.61426,29.62109z M61.5459,33.37402h-0.65234v-2.75391h0.65234
		c0.76855,0,1.32617,0.60547,1.32617,1.37305C62.87207,32.76855,62.31445,33.37402,61.5459,33.37402z"/>
</g>
</svg>
